<svg width="24px" height="24px" viewBox="0 0 24 24" version="1.1" xmlns="http://www.w3.org/2000/svg" xmlns:xlink="http://www.w3.org/1999/xlink">
  <title>Email</title>
  <g>
    <path d="M0.765334324,5.21466667 C1.4160009,5.564 10.429333,10.4066667 10.765333,10.5866667 C11.1013329,10.7666667 11.5359995,10.852 11.9733328,10.852 C12.4106661,10.852 12.8453327,10.7666667 13.1813326,10.5866667 C13.5173326,10.4066667 22.5306647,5.564 23.1813313,5.21466667 C23.8333312,4.864 24.4493311,3.5 23.2533313,3.5 L0.694667667,3.5 C-0.501332172,3.5 0.114667745,4.864 0.765334324,5.21466667 Z M23.4839979,7.652 C22.743998,8.03733333 13.6346659,12.784 13.1813326,13.0213333 C12.7279994,13.2586667 12.4106661,13.2866667 11.9733328,13.2866667 C11.5359995,13.2866667 11.2186662,13.2586667 10.765333,13.0213333 C10.3119997,12.784 1.25466759,8.036 0.514667691,7.65066667 C-0.00533223879,7.37866667 1.09382078e-06,7.69733333 1.09382078e-06,7.94266667 C1.09382078e-06,8.188 1.09382954e-06,18.6666667 1.09382954e-06,18.6666667 C1.09382954e-06,19.2266667 0.754667659,20 1.33333425,20 L22.6666647,20 C23.2453313,20 23.9999979,19.2266667 23.9999979,18.6666667 C23.9999979,18.6666667 23.9999979,8.18933333 23.9999979,7.944 C23.9999979,7.69866667 24.0053312,7.38 23.4839979,7.652 Z"></path>
  </g>
</svg>
