<svg width="24px" height="24px" viewBox="0 0 24 24" version="1.1" xmlns="http://www.w3.org/2000/svg" xmlns:xlink="http://www.w3.org/1999/xlink">
  <title>Instagram</title>
  <g>
    <path d="M12.000022,1 C9.01257921,1 8.63798108,1.01266283 7.46471421,1.06619571 C6.29389254,1.11959704 5.49426312,1.30556487 4.794582,1.57750779 C4.07123483,1.85857658 3.45779142,2.23470279 2.84622533,2.84622533 C2.23470279,3.45779142 1.85857658,4.07123483 1.57750779,4.794582 C1.30556488,5.49426313 1.11959704,6.29389254 1.06619571,7.46471421 C1.01266283,8.63798108 1,9.01257921 1,12.000022 C1,14.9874208 1.01266283,15.3620189 1.06619571,16.5352858 C1.11959704,17.7061075 1.30556488,18.5057369 1.57750779,19.205418 C1.85857658,19.9287652 2.23470279,20.5422086 2.84622533,21.1537747 C3.45779142,21.7652972 4.07123483,22.1414234 4.794582,22.4225362 C5.49426312,22.6944351 6.29389254,22.880403 7.46471421,22.9338043 C8.63798108,22.9873372 9.01257921,23 12.000022,23 C14.9874208,23 15.3620189,22.9873372 16.5352858,22.9338043 C17.7061075,22.880403 18.5057369,22.6944351 19.205418,22.4225362 C19.9287652,22.1414234 20.5422086,21.7652972 21.1537747,21.1537747 C21.7652972,20.5422086 22.1414234,19.9287652 22.4225362,19.205418 C22.6944351,18.5057369 22.880403,17.7061075 22.9338043,16.5352858 C22.9873372,15.3620189 23,14.9874208 23,12.000022 C23,9.01257921 22.9873372,8.63798108 22.9338043,7.46471421 C22.880403,6.29389254 22.6944351,5.49426313 22.4225362,4.794582 C22.1414234,4.07123483 21.7652972,3.45779142 21.1537747,2.84622533 C20.5422086,2.23470279 19.9287652,1.85857658 19.205418,1.57750779 C18.5057369,1.30556487 17.7061075,1.11959704 16.5352858,1.06619571 C15.3620189,1.01266283 14.9874208,1 12.000022,1 Z M12.000022,2.98197863 C14.9371192,2.98197863 15.2850382,2.99320046 16.4449442,3.04612192 C17.5174332,3.09502608 18.0998749,3.27422525 18.4874851,3.42486796 C19.0009367,3.62441529 19.3673701,3.86278025 19.7522729,4.24772708 C20.1372197,4.63262992 20.3755847,4.99906329 20.575132,5.51251487 C20.7257747,5.90012508 20.9049739,6.48256683 20.9538781,7.55505583 C21.0067995,8.71496183 21.0180214,9.06288083 21.0180214,12.000022 C21.0180214,14.9371192 21.0067995,15.2850382 20.9538781,16.4449442 C20.9049739,17.5174332 20.7257747,18.0998749 20.575132,18.4874851 C20.3755847,19.0009367 20.1372197,19.3673701 19.7522729,19.7522729 C19.3673701,20.1372197 19.0009367,20.3755847 18.4874851,20.575132 C18.0998749,20.7257747 17.5174332,20.9049739 16.4449442,20.9538781 C15.2852128,21.0067995 14.9373373,21.0180214 12.000022,21.0180214 C9.06266267,21.0180214 8.71483075,21.0067995 7.55505583,20.9538781 C6.48256683,20.9049739 5.90012508,20.7257747 5.51251487,20.575132 C4.99906329,20.3755847 4.63262992,20.1372197 4.24772708,19.7522729 C3.86282379,19.3673701 3.62441529,19.0009367 3.42486796,18.4874851 C3.27422525,18.0998749 3.09502608,17.5174332 3.04612192,16.4449442 C2.99320046,15.2850382 2.98197863,14.9371192 2.98197863,12.000022 C2.98197863,9.06288083 2.99320046,8.71496183 3.04612192,7.55505583 C3.09502608,6.48256683 3.27422525,5.90012508 3.42486796,5.51251487 C3.62441529,4.99906329 3.86278025,4.63262992 4.24772708,4.24772708 C4.63262992,3.86278025 4.99906329,3.62441529 5.51251487,3.42486796 C5.90012508,3.27422525 6.48256683,3.09502608 7.55505583,3.04612192 C8.71496183,2.99320046 9.06288083,2.98197863 12.000022,2.98197863 Z M12.000022,6.35135471 C8.88031933,6.35135471 6.35135471,8.88031933 6.35135471,12.000022 C6.35135471,15.1196807 8.88031933,17.6486453 12.000022,17.6486453 C15.1196807,17.6486453 17.6486453,15.1196807 17.6486453,12.000022 C17.6486453,8.88031933 15.1196807,6.35135471 12.000022,6.35135471 Z M12.000022,15.6666667 C9.97494629,15.6666667 8.33333333,14.0250537 8.33333333,12.000022 C8.33333333,9.97494629 9.97494629,8.33333333 12.000022,8.33333333 C14.0250537,8.33333333 15.6666667,9.97494629 15.6666667,12.000022 C15.6666667,14.0250537 14.0250537,15.6666667 12.000022,15.6666667 Z M19.1918385,6.12818533 C19.1918385,6.85720896 18.6008383,7.44816517 17.8718147,7.44816517 C17.1428346,7.44816517 16.5518348,6.85720896 16.5518348,6.12818533 C16.5518348,5.39916171 17.1428346,4.8081615 17.8718147,4.8081615 C18.6008383,4.8081615 19.1918385,5.39916171 19.1918385,6.12818533 Z"></path>
  </g>
</svg>
