<svg xmlns="http://www.w3.org/2000/svg" viewBox="0 0 134 32">
  <title>Land Ho – Coworking</title>
  <g>
    <g id="logo">
      <path d="M0,.43H4.76V14.76h5.51V18.9H0Z"/>
      <path d="M20.32,18.9H15.16L22.53.43h4.1L33.78,18.9H28.57l-.88-2.67H21.17ZM24.37,6l-2,6.44h4.1Z"/>
      <path d="M49.4,11.69,49.3.43h4.55V18.9H49.73L42.61,7.77l.1,11.13H38.16V.43h4.1Z"/>
      <path d="M59.3.43h6.16c2.09,0,5.81,0,8.23,3.44A9.39,9.39,0,0,1,75.4,9.62c0,5-2.52,9.29-9.59,9.29H59.3Zm4.76,14.33h2c3.55,0,4.55-2.45,4.55-5.07a6.47,6.47,0,0,0-.91-3.42,3.92,3.92,0,0,0-3.62-1.7H64.05Z"/>
      <path d="M87,18.9V.43h4.76V7.37h6.09V.43h4.76V18.9H97.85V11.51H91.76V18.9Z"/>
      <path d="M107.51,9.87a9.83,9.83,0,1,1,9.79,9.38,9.58,9.58,0,0,1-9.79-9.38Zm4.76-.22a5.2,5.2,0,0,0,5.13,5.47c3.37,0,5-3,5-5.42s-1.64-5.47-5.06-5.47a5.16,5.16,0,0,0-5.08,5.39Z"/>
    </g>
    <g id="mark">
      <path d="M131,0a3,3,0,1,1-3,3,3,3,0,0,1,3-3Zm0,.59A2.35,2.35,0,0,0,128.68,3a2.33,2.33,0,1,0,4.67,0A2.35,2.35,0,0,0,131,.59Zm.11.94c.55,0,1,.22,1,.79a.7.7,0,0,1-.46.68c.21.09.38.22.41.65a2.22,2.22,0,0,0,.09.69h-.69a4,4,0,0,1-.09-.67c0-.16-.06-.41-.51-.41h-.28V4.34h-.71V1.53Zm-.49.48v.79H131c.15,0,.49,0,.49-.43S131.17,2,131,2Z"/>
    </g>
    <g id="chanel">
      <path d="M31,29.95a2,2,0,0,1,2.07-2,1.76,1.76,0,0,1,1.61.82l-.63.45a1.1,1.1,0,0,0-1-.52,1.31,1.31,0,0,0,0,2.62,1.15,1.15,0,0,0,1-.59l.65.44a1.9,1.9,0,0,1-1.68.88A2,2,0,0,1,31,29.95Z"/>
      <path d="M38.6,29.95A2.09,2.09,0,1,1,40.68,32,2,2,0,0,1,38.6,29.95Zm3.32,0a1.23,1.23,0,1,0-1.23,1.32A1.23,1.23,0,0,0,41.91,29.95Z"/>
      <path d="M46.43,28h.88l.59,1.6c.1.28.21.72.21.72a5.05,5.05,0,0,1,.25-.72l.78-1.64h.08L50,29.56a5.05,5.05,0,0,1,.25.72s.11-.45.21-.72L51,28h.81l-1.46,4h-.08l-.91-1.93a5.94,5.94,0,0,1-.23-.59s-.12.37-.23.59L48,32h-.08Z"/>
      <path d="M55.63,29.95A2.09,2.09,0,1,1,57.71,32,2,2,0,0,1,55.63,29.95Zm3.32,0a1.23,1.23,0,1,0-1.23,1.32A1.23,1.23,0,0,0,58.95,29.95Z"/>
      <path d="M66.85,31.95h-1l-.66-1L65,31H64.7v1h-.83V28H65c1.13,0,1.8.53,1.8,1.51A1.24,1.24,0,0,1,66,30.7ZM65,30.24c.68,0,1-.21,1-.78s-.31-.79-1-.79H64.7v1.56Z"/>
      <path d="M72,29.38,73.07,28H74l-1.35,1.81,1.52,2.19h-1L72.1,30.38l-.39.46v1.1h-.83V28h.83v1.38a6.47,6.47,0,0,1-.05.67A3.47,3.47,0,0,1,72,29.38Z"/>
      <path d="M78.12,28h.83v4h-.83Z"/>
      <path d="M84.37,30.09a6,6,0,0,1-.48-.55,7,7,0,0,1,.06.73v1.67h-.78v-4h.08l2,1.89a5.74,5.74,0,0,1,.47.55s-.05-.45-.05-.73V28h.78v4H86.4Z"/>
      <path d="M90.56,29.95a2,2,0,0,1,2.06-2,1.82,1.82,0,0,1,1.46.55l-.56.55a1.12,1.12,0,0,0-.9-.36,1.2,1.2,0,0,0-1.2,1.3,1.25,1.25,0,0,0,1.33,1.32,2,2,0,0,0,.79-.15v-.59h-1v-.72h1.73v1.73a2.63,2.63,0,0,1-1.55.46A2,2,0,0,1,90.56,29.95Z"/>
    </g>
  </g>
</svg>
