<svg width="48px" height="48px" viewBox="0 0 48 48" version="1.1" xmlns="http://www.w3.org/2000/svg" xmlns:xlink="http://www.w3.org/1999/xlink">
  <title>Play</title>
  <g>
    <path d="M24,48 C10.745166,48 0,37.254834 0,24 C0,10.745166 10.745166,0 24,0 C37.254834,0 48,10.745166 48,24 C48,37.254834 37.254834,48 24,48 Z M24,46 C36.1502645,46 46,36.1502645 46,24 C46,11.8497355 36.1502645,2 24,2 C11.8497355,2 2,11.8497355 2,24 C2,36.1502645 11.8497355,46 24,46 Z M19,17.9925398 C19,16.3398057 20.1765182,15.6617915 21.6062863,16.466036 L32.3937137,22.533964 C33.8331259,23.3436333 33.8234818,24.6617915 32.3937137,25.466036 L21.6062863,31.533964 C20.1668741,32.3436333 19,31.6470745 19,30.0074602 L19,17.9925398 Z"></path>
  </g>
</svg>
