<svg xmlns="http://www.w3.org/2000/svg" viewBox="0 0 24 24">
  <title>Twitter</title>
  <g>
    <path d="M24,4.37a9.62,9.62,0,0,1-2.83.79,5,5,0,0,0,2.17-2.79,9.7,9.7,0,0,1-3.13,1.22A4.86,4.86,0,0,0,16.62,2a5,5,0,0,0-4.92,5,5.15,5.15,0,0,0,.13,1.15A13.86,13.86,0,0,1,1.67,2.92,5.14,5.14,0,0,0,1,5.46a5.08,5.08,0,0,0,2.19,4.2A4.83,4.83,0,0,1,1,9V9.1a5,5,0,0,0,4,5,4.7,4.7,0,0,1-1.3.18,4.78,4.78,0,0,1-.93-.09,4.94,4.94,0,0,0,4.6,3.5A9.72,9.72,0,0,1,1.17,19.8,9.85,9.85,0,0,1,0,19.73,13.71,13.71,0,0,0,7.55,22c9.06,0,14-7.69,14-14.36,0-.22,0-.44,0-.65A10.11,10.11,0,0,0,24,4.37"/>
  </g>
</svg>
